<mxfile host="app.diagrams.net" agent="Mozilla/5.0 (Windows NT 10.0; Win64; x64) AppleWebKit/537.36 (KHTML, like Gecko) Chrome/130.0.0.0 Safari/537.36" version="24.8.3">
  <diagram name="Page-1" id="69V8u1TAhZ-syxMzk9xv">
    <mxGraphModel dx="6233" dy="6241" grid="1" gridSize="10" guides="1" tooltips="1" connect="1" arrows="1" fold="1" page="1" pageScale="1" pageWidth="3300" pageHeight="4681" math="0" shadow="0">
      <root>
        <mxCell id="0" />
        <mxCell id="1" parent="0" />
        <mxCell id="zv0nVKMMvP0Aw8tcAcmr-81" value="" style="rounded=0;whiteSpace=wrap;html=1;" vertex="1" parent="1">
          <mxGeometry x="-140" y="-120" width="1510" height="1010" as="geometry" />
        </mxCell>
        <mxCell id="zv0nVKMMvP0Aw8tcAcmr-82" value="&lt;font style=&quot;font-size: 16px;&quot;&gt;Cas d&#39;utilisation gestion réunion&lt;/font&gt;" style="shape=umlFrame;whiteSpace=wrap;html=1;pointerEvents=0;recursiveResize=0;container=1;collapsible=0;width=279;height=36;" vertex="1" parent="1">
          <mxGeometry x="-60" y="-36" width="1370" height="866" as="geometry" />
        </mxCell>
        <mxCell id="zv0nVKMMvP0Aw8tcAcmr-83" value="&lt;font style=&quot;font-size: 15px;&quot;&gt;Consulter Réunion&lt;/font&gt;" style="ellipse;whiteSpace=wrap;html=1;" vertex="1" parent="zv0nVKMMvP0Aw8tcAcmr-82">
          <mxGeometry x="555" y="356" width="140" height="70" as="geometry" />
        </mxCell>
        <mxCell id="zv0nVKMMvP0Aw8tcAcmr-84" value="&lt;font style=&quot;font-size: 15px;&quot;&gt;Supprimer Reunion&lt;/font&gt;" style="ellipse;whiteSpace=wrap;html=1;" vertex="1" parent="zv0nVKMMvP0Aw8tcAcmr-82">
          <mxGeometry x="529" y="256" width="140" height="70" as="geometry" />
        </mxCell>
        <mxCell id="zv0nVKMMvP0Aw8tcAcmr-85" value="" style="rounded=0;whiteSpace=wrap;html=1;" vertex="1" parent="zv0nVKMMvP0Aw8tcAcmr-82">
          <mxGeometry x="299" y="86" width="841" height="664" as="geometry" />
        </mxCell>
        <mxCell id="zv0nVKMMvP0Aw8tcAcmr-86" value="&lt;font style=&quot;font-size: 15px;&quot;&gt;Serveur de Messagerie&lt;/font&gt;" style="shape=umlActor;verticalLabelPosition=bottom;verticalAlign=top;html=1;outlineConnect=0;" vertex="1" parent="zv0nVKMMvP0Aw8tcAcmr-82">
          <mxGeometry x="1229" y="646" width="51" height="66" as="geometry" />
        </mxCell>
        <mxCell id="zv0nVKMMvP0Aw8tcAcmr-87" value="Utilisateur" style="text;html=1;align=center;verticalAlign=middle;whiteSpace=wrap;rounded=0;fontSize=16;" vertex="1" parent="zv0nVKMMvP0Aw8tcAcmr-82">
          <mxGeometry x="119" y="396" width="60" height="30" as="geometry" />
        </mxCell>
        <mxCell id="zv0nVKMMvP0Aw8tcAcmr-88" value="&lt;font style=&quot;font-size: 15px;&quot;&gt;Consulter réunion&lt;/font&gt;" style="ellipse;whiteSpace=wrap;html=1;" vertex="1" parent="zv0nVKMMvP0Aw8tcAcmr-82">
          <mxGeometry x="580" y="416" width="140" height="70" as="geometry" />
        </mxCell>
        <mxCell id="zv0nVKMMvP0Aw8tcAcmr-89" value="&lt;font style=&quot;font-size: 15px;&quot;&gt;Ajouter réunion&lt;/font&gt;" style="ellipse;whiteSpace=wrap;html=1;" vertex="1" parent="zv0nVKMMvP0Aw8tcAcmr-82">
          <mxGeometry x="609" y="286" width="140" height="70" as="geometry" />
        </mxCell>
        <mxCell id="zv0nVKMMvP0Aw8tcAcmr-90" value="&lt;font style=&quot;font-size: 15px;&quot;&gt;Modifier Réunion&lt;/font&gt;" style="ellipse;whiteSpace=wrap;html=1;" vertex="1" parent="zv0nVKMMvP0Aw8tcAcmr-82">
          <mxGeometry x="619" y="116" width="140" height="70" as="geometry" />
        </mxCell>
        <mxCell id="zv0nVKMMvP0Aw8tcAcmr-91" value="&lt;font style=&quot;font-size: 15px;&quot;&gt;Notifier le participant au sujet d&#39;une reunion&lt;/font&gt;" style="ellipse;whiteSpace=wrap;html=1;" vertex="1" parent="zv0nVKMMvP0Aw8tcAcmr-82">
          <mxGeometry x="639" y="626" width="170" height="70" as="geometry" />
        </mxCell>
        <mxCell id="zv0nVKMMvP0Aw8tcAcmr-92" value="" style="endArrow=classic;html=1;rounded=0;entryX=1;entryY=0.5;entryDx=0;entryDy=0;exitX=0;exitY=0.3333333333333333;exitDx=0;exitDy=0;exitPerimeter=0;" edge="1" parent="zv0nVKMMvP0Aw8tcAcmr-82" source="zv0nVKMMvP0Aw8tcAcmr-86" target="zv0nVKMMvP0Aw8tcAcmr-91">
          <mxGeometry width="50" height="50" relative="1" as="geometry">
            <mxPoint x="819" y="616" as="sourcePoint" />
            <mxPoint x="869" y="566" as="targetPoint" />
          </mxGeometry>
        </mxCell>
        <mxCell id="zv0nVKMMvP0Aw8tcAcmr-93" value="" style="shape=umlActor;verticalLabelPosition=bottom;verticalAlign=top;html=1;outlineConnect=0;" vertex="1" parent="zv0nVKMMvP0Aw8tcAcmr-82">
          <mxGeometry x="128" y="336" width="30" height="60" as="geometry" />
        </mxCell>
        <mxCell id="zv0nVKMMvP0Aw8tcAcmr-94" value="" style="endArrow=classic;html=1;rounded=0;exitX=0.75;exitY=0.1;exitDx=0;exitDy=0;exitPerimeter=0;entryX=0;entryY=0.5;entryDx=0;entryDy=0;" edge="1" parent="zv0nVKMMvP0Aw8tcAcmr-82" source="zv0nVKMMvP0Aw8tcAcmr-93" target="zv0nVKMMvP0Aw8tcAcmr-90">
          <mxGeometry width="50" height="50" relative="1" as="geometry">
            <mxPoint x="619" y="396" as="sourcePoint" />
            <mxPoint x="669" y="346" as="targetPoint" />
          </mxGeometry>
        </mxCell>
        <mxCell id="zv0nVKMMvP0Aw8tcAcmr-95" value="" style="endArrow=classic;html=1;rounded=0;exitX=0.75;exitY=0.1;exitDx=0;exitDy=0;exitPerimeter=0;entryX=0;entryY=0.5;entryDx=0;entryDy=0;" edge="1" parent="zv0nVKMMvP0Aw8tcAcmr-82" source="zv0nVKMMvP0Aw8tcAcmr-93" target="zv0nVKMMvP0Aw8tcAcmr-89">
          <mxGeometry width="50" height="50" relative="1" as="geometry">
            <mxPoint x="619" y="396" as="sourcePoint" />
            <mxPoint x="669" y="346" as="targetPoint" />
          </mxGeometry>
        </mxCell>
        <mxCell id="zv0nVKMMvP0Aw8tcAcmr-96" value="" style="endArrow=classic;html=1;rounded=0;exitX=0.75;exitY=0.1;exitDx=0;exitDy=0;exitPerimeter=0;entryX=0;entryY=0.5;entryDx=0;entryDy=0;" edge="1" parent="zv0nVKMMvP0Aw8tcAcmr-82" source="zv0nVKMMvP0Aw8tcAcmr-93" target="zv0nVKMMvP0Aw8tcAcmr-91">
          <mxGeometry width="50" height="50" relative="1" as="geometry">
            <mxPoint x="549" y="616" as="sourcePoint" />
            <mxPoint x="599" y="566" as="targetPoint" />
          </mxGeometry>
        </mxCell>
        <mxCell id="zv0nVKMMvP0Aw8tcAcmr-97" value="" style="endArrow=classic;html=1;rounded=0;exitX=0.75;exitY=0.1;exitDx=0;exitDy=0;exitPerimeter=0;entryX=0;entryY=0.5;entryDx=0;entryDy=0;" edge="1" parent="zv0nVKMMvP0Aw8tcAcmr-82" source="zv0nVKMMvP0Aw8tcAcmr-93" target="zv0nVKMMvP0Aw8tcAcmr-88">
          <mxGeometry width="50" height="50" relative="1" as="geometry">
            <mxPoint x="499" y="346" as="sourcePoint" />
            <mxPoint x="549" y="296" as="targetPoint" />
          </mxGeometry>
        </mxCell>
        <mxCell id="zv0nVKMMvP0Aw8tcAcmr-103" value="&lt;font style=&quot;font-size: 15px;&quot;&gt;Consulter réunion&lt;/font&gt;" style="ellipse;whiteSpace=wrap;html=1;" vertex="1" parent="zv0nVKMMvP0Aw8tcAcmr-82">
          <mxGeometry x="630" y="526" width="140" height="70" as="geometry" />
        </mxCell>
        <mxCell id="zv0nVKMMvP0Aw8tcAcmr-104" value="" style="endArrow=classic;html=1;rounded=0;exitX=0.75;exitY=0.1;exitDx=0;exitDy=0;exitPerimeter=0;entryX=0;entryY=0.5;entryDx=0;entryDy=0;" edge="1" parent="zv0nVKMMvP0Aw8tcAcmr-82" source="zv0nVKMMvP0Aw8tcAcmr-93" target="zv0nVKMMvP0Aw8tcAcmr-103">
          <mxGeometry width="50" height="50" relative="1" as="geometry">
            <mxPoint x="610" y="516" as="sourcePoint" />
            <mxPoint x="660" y="466" as="targetPoint" />
          </mxGeometry>
        </mxCell>
        <mxCell id="zv0nVKMMvP0Aw8tcAcmr-98" value="&lt;font style=&quot;font-size: 15px;&quot;&gt;Se conecter&lt;/font&gt;" style="ellipse;whiteSpace=wrap;html=1;" vertex="1" parent="1">
          <mxGeometry x="830" y="380" width="140" height="70" as="geometry" />
        </mxCell>
        <mxCell id="zv0nVKMMvP0Aw8tcAcmr-99" value="&lt;font style=&quot;font-size: 15px;&quot;&gt;&amp;lt;&amp;lt;include&amp;gt;&amp;gt;&lt;/font&gt;" style="html=1;verticalAlign=bottom;endArrow=open;dashed=1;endSize=8;curved=0;rounded=0;exitX=1;exitY=1;exitDx=0;exitDy=0;entryX=0.317;entryY=0.11;entryDx=0;entryDy=0;entryPerimeter=0;" edge="1" parent="1" source="zv0nVKMMvP0Aw8tcAcmr-89" target="zv0nVKMMvP0Aw8tcAcmr-98">
          <mxGeometry relative="1" as="geometry">
            <mxPoint x="570" y="280" as="sourcePoint" />
            <mxPoint x="490" y="280" as="targetPoint" />
          </mxGeometry>
        </mxCell>
        <mxCell id="zv0nVKMMvP0Aw8tcAcmr-100" value="&lt;font style=&quot;font-size: 15px;&quot;&gt;&amp;lt;&amp;lt;include&amp;gt;&amp;gt;&lt;/font&gt;" style="html=1;verticalAlign=bottom;endArrow=open;dashed=1;endSize=8;curved=0;rounded=0;exitX=0.798;exitY=0.919;exitDx=0;exitDy=0;exitPerimeter=0;" edge="1" parent="1" source="zv0nVKMMvP0Aw8tcAcmr-90" target="zv0nVKMMvP0Aw8tcAcmr-98">
          <mxGeometry relative="1" as="geometry">
            <mxPoint x="570" y="280" as="sourcePoint" />
            <mxPoint x="490" y="280" as="targetPoint" />
          </mxGeometry>
        </mxCell>
        <mxCell id="zv0nVKMMvP0Aw8tcAcmr-101" value="&lt;font style=&quot;font-size: 15px;&quot;&gt;&amp;lt;&amp;lt;include&amp;gt;&amp;gt;&lt;/font&gt;" style="html=1;verticalAlign=bottom;endArrow=open;dashed=1;endSize=8;curved=0;rounded=0;entryX=0;entryY=0.5;entryDx=0;entryDy=0;" edge="1" parent="1" source="zv0nVKMMvP0Aw8tcAcmr-88" target="zv0nVKMMvP0Aw8tcAcmr-98">
          <mxGeometry x="0.0039" relative="1" as="geometry">
            <mxPoint x="680" y="300" as="sourcePoint" />
            <mxPoint x="600" y="300" as="targetPoint" />
            <mxPoint as="offset" />
          </mxGeometry>
        </mxCell>
        <mxCell id="zv0nVKMMvP0Aw8tcAcmr-102" value="&lt;font style=&quot;font-size: 15px;&quot;&gt;&amp;lt;&amp;lt;include&amp;gt;&amp;gt;&lt;/font&gt;" style="html=1;verticalAlign=bottom;endArrow=open;dashed=1;endSize=8;curved=0;rounded=0;exitX=1;exitY=0;exitDx=0;exitDy=0;entryX=0.5;entryY=1;entryDx=0;entryDy=0;" edge="1" parent="1" source="zv0nVKMMvP0Aw8tcAcmr-91" target="zv0nVKMMvP0Aw8tcAcmr-98">
          <mxGeometry relative="1" as="geometry">
            <mxPoint x="630" y="540" as="sourcePoint" />
            <mxPoint x="550" y="540" as="targetPoint" />
          </mxGeometry>
        </mxCell>
        <mxCell id="zv0nVKMMvP0Aw8tcAcmr-105" value="&lt;font style=&quot;font-size: 15px;&quot;&gt;&amp;lt;&amp;lt;include&amp;gt;&amp;gt;&lt;/font&gt;" style="html=1;verticalAlign=bottom;endArrow=open;dashed=1;endSize=8;curved=0;rounded=0;entryX=0.083;entryY=0.786;entryDx=0;entryDy=0;exitX=1;exitY=0.5;exitDx=0;exitDy=0;entryPerimeter=0;" edge="1" parent="1" source="zv0nVKMMvP0Aw8tcAcmr-103" target="zv0nVKMMvP0Aw8tcAcmr-98">
          <mxGeometry x="0.0039" relative="1" as="geometry">
            <mxPoint x="670" y="425" as="sourcePoint" />
            <mxPoint x="840" y="425" as="targetPoint" />
            <mxPoint as="offset" />
          </mxGeometry>
        </mxCell>
      </root>
    </mxGraphModel>
  </diagram>
</mxfile>
